<svg version="1.2" xmlns="http://www.w3.org/2000/svg" viewBox="0 0 505 505" width="512" height="512">
	<style>
		.s0 { fill: #205f72 } 
		.s1 { fill: #349dd1 } 
		.s2 { fill: #ea3c13 } 
		.s3 { fill: #1f3954 } 
	</style>
	<path class="s0" d="m423.3 69.5c3.7-3.7 9.7-3.6 13.3 0 3.7 3.7 3.7 9.7 0 13.4l-299.4 299.4c-3.7 3.7-9.7 3.7-13.4 0-3.7-3.6-3.6-9.6 0-13.3z"/>
	<path class="s1" d="m444.3 27c19.3 0 34.8 15.6 34.8 34.8 0 19.3-15.5 34.8-34.8 34.8-19.2 0-34.8-15.5-34.8-34.8 0-19.2 15.6-34.8 34.8-34.8z"/>
	<path class="s2" d="m311.1 99.4c-6.2 6.2-6.2 16.3 0 22.6l73.1 73c6.2 6.2 16.3 6.3 22.6 0 6.2-6.2 6.2-16.3 0-22.6l-73.1-73c-6.2-6.2-16.3-6.3-22.6 0z"/>
	<path class="s2" d="m273.5 137c-6.2 6.3-6.2 16.4 0 22.6l73 73c6.3 6.3 16.4 6.3 22.7 0 6.2-6.2 6.2-16.3 0-22.5l-73.1-73.1c-6.2-6.2-16.3-6.2-22.6 0z"/>
	<path class="s2" d="m235.9 174.7c-6.3 6.2-6.3 16.3 0 22.6l73 73c6.3 6.2 16.4 6.2 22.6 0 6.3-6.3 6.3-16.3 0-22.6l-73-73c-6.3-6.3-16.4-6.3-22.6 0z"/>
	<path class="s2" d="m198.3 212.3c-6.3 6.2-6.3 16.4-0.1 22.6l73.1 73c6.2 6.3 16.3 6.3 22.6 0 6.2-6.2 6.2-16.3 0-22.6l-73.1-73c-6.2-6.3-16.3-6.3-22.5 0z"/>
	<path class="s3" d="m41.1 173.4c8.2 0 14.9 6.7 14.9 14.8-0.1 143.2 116.4 259.7 259.6 259.7 8.2 0 14.8 6.6 14.8 14.8 0 8.2-6.6 14.9-14.8 14.8-159.5 0-289.3-129.8-289.3-289.3 0-8.1 6.6-14.8 14.8-14.8z"/>
</svg>